<?xml version="1.0" encoding="utf-8"?>
<!-- Generator: Adobe Illustrator 17.0.0, SVG Export Plug-In . SVG Version: 6.00 Build 0)  -->
<!DOCTYPE svg PUBLIC "-//W3C//DTD SVG 1.1//EN" "http://www.w3.org/Graphics/SVG/1.1/DTD/svg11.dtd">
<svg version="1.1" id="Layer_1" xmlns:ev="http://www.w3.org/2001/xml-events"
	 xmlns="http://www.w3.org/2000/svg" xmlns:xlink="http://www.w3.org/1999/xlink" x="0px" y="0px" width="125px" height="129px"
	 viewBox="0 0 125 129" enable-background="new 0 0 125 129" xml:space="preserve">
<path fill="#70B44B" d="M1.163,94l60.881-35.434L124.163,94l-62,35L1.163,94z"/>
<path opacity="0.2" fill="#4C4C4C" enable-background="new    " d="M26.589,91.349l35.455-22.152L97.163,91l-35,22L26.589,91.349z"
	/>
<path fill="#E75B5B" d="M0,67.428L62.163,32l61.924,35.428L62.163,103L0,67.428z"/>
<path opacity="0.2" fill="#4C4C4C" enable-background="new    " d="M26.589,60.112l35.455-22.151L98.163,60l-36,22L26.589,60.112z"
	/>
<path fill="#F9DE48" d="M0.163,35l62-35l61.924,35.534L62.163,71L0.163,35z"/>
<path fill="#343432" d="M69.175,54.237l1.604-4.095c1.973,0.422,3.688,0.748,5.287-0.303c1.532-1.008,1.926-2.06-0.3-3.681
	L60.63,35.129l4.663-3.066l15.199,11.073c4.611,3.359,3.878,6.75-0.253,9.466C76.509,55.055,72.5,55.135,69.175,54.237"/>
<path fill="#343432" d="M85.187,43.047l1.699-4.026c2.558,0.478,5.002,0.458,7.3-1.054c1.932-1.271,2.242-2.753,0.97-3.679
	c-1.526-1.112-3.333-0.674-6.355,0.08l-1.643,0.419c-4.732,1.216-8.681,1.433-12.306-1.208c-3.339-2.432-3.218-6.038,0.946-8.776
	c2.965-1.949,6.082-2.633,10.19-1.764l-1.405,4.009c-2.167-0.47-3.573-0.295-4.906,0.581c-1.366,0.898-1.405,2.07-0.324,2.857
	c1.336,0.973,2.742,0.797,5.568,0.086l1.643-0.419c5.586-1.425,9.471-1.688,13.191,1.022c4.007,2.919,2.903,6.686-1.527,9.599
	C93.898,43.622,89.128,44.025,85.187,43.047"/>
</svg>
