<?xml version="1.0" encoding="utf-8"?>
<!-- Generator: Adobe Illustrator 17.0.0, SVG Export Plug-In . SVG Version: 6.00 Build 0)  -->
<!DOCTYPE svg PUBLIC "-//W3C//DTD SVG 1.1//EN" "http://www.w3.org/Graphics/SVG/1.1/DTD/svg11.dtd">
<svg version="1.1" id="Layer_1" xmlns:ev="http://www.w3.org/2001/xml-events"
	 xmlns="http://www.w3.org/2000/svg" xmlns:xlink="http://www.w3.org/1999/xlink" x="0px" y="0px" width="433px" height="249.5px"
	 viewBox="-5 0 433 249.5" enable-background="new -5 0 433 249.5" xml:space="preserve">
<g opacity="0.35">
	<polygon points="81.25,165.48 62.757,165.48 62.757,244.91 115.455,244.91 115.455,230.726 81.25,230.726 	"/>
	<polygon points="0,244.91 18.493,244.91 18.493,212.941 50.298,212.941 50.298,198.757 18.493,198.757 18.493,179.664 
		55.862,179.664 55.862,165.48 0,165.48 	"/>
	<path d="M401.31,165.48h-19.803l-25.641,79.43h18.549l4.473-15.439h25.04l4.528,15.439v0h18.548L401.31,165.48z M382.98,215.287
		l8.237-28.422h0.327l8.293,28.422H382.98z"/>
	<rect x="268.922" y="165.48" width="18.384" height="79.43"/>
	<path d="M354.209,172.708c-5.528-4.819-13.002-7.228-22.421-7.228h-32.241v79.43h18.493v-27.223h13.748
		c9.419,0,16.893-2.391,22.421-7.173c5.528-4.782,8.292-11.083,8.292-18.903C362.501,183.828,359.737,177.527,354.209,172.708z
		 M340.926,200.203c-2.092,2.201-5.138,3.301-9.138,3.301H318.04v-23.84h13.748c4,0,7.046,1.127,9.138,3.382
		c2.09,2.255,3.136,5.147,3.136,8.674C344.062,195.176,343.016,198.003,340.926,200.203z"/>
	<path d="M257.663,238.145c-0.619-2.654-0.927-5.019-0.927-7.092v-5.019c0-4.801-1.064-8.81-3.192-12.029
		c-2.127-3.219-5.628-5.518-10.501-6.901c4.218-1.855,7.41-4.255,9.574-7.201c2.163-2.946,3.246-6.473,3.246-10.583
		c0-7.383-2.692-13.202-8.074-17.458c-5.383-4.255-12.675-6.382-21.876-6.382h-30.55v79.43h18.494v-30.441h12.711
		c3.854,0,6.782,1,8.783,3c1.999,2.001,3,4.892,3,8.674v4.801c0,2.437,0.227,5.092,0.682,7.965c0.454,2.873,1.409,4.874,2.864,6.001
		h18.985v-1.091C259.354,242.692,258.281,240.8,257.663,238.145z M234.532,197.748c-1.964,1.691-4.8,2.537-8.51,2.537h-12.165
		v-20.621h12.056c3.673,0,6.519,0.991,8.538,2.973c2.018,1.982,3.027,4.592,3.027,7.828
		C237.478,193.629,236.496,196.057,234.532,197.748z"/>
	<path d="M152.409,164.334c-10.038,0-18.176,3.183-24.413,9.547c-6.238,6.365-9.356,14.421-9.356,24.167v14.293
		c0,9.784,3.128,17.849,9.383,24.195c6.255,6.347,14.42,9.519,24.495,9.519c10.001,0,18.102-3.172,24.303-9.519
		c6.201-6.346,9.302-14.411,9.302-24.195v-14.293c0-9.746-3.128-17.802-9.383-24.167
		C170.484,167.517,162.373,164.334,152.409,164.334z M167.738,197.939v14.402c0,5.747-1.328,10.439-3.982,14.075
		c-2.655,3.637-6.402,5.455-11.238,5.455c-4.983,0-8.811-1.818-11.484-5.455c-2.673-3.636-4.009-8.328-4.009-14.075v-14.402
		c0-5.709,1.317-10.374,3.955-13.993c2.636-3.618,6.446-5.428,11.429-5.428c4.873,0,8.646,1.819,11.32,5.455
		C166.402,187.611,167.738,192.265,167.738,197.939L167.738,197.939z"/>
	<polygon points="356.776,90.432 357.073,90.333 391.774,146.071 401.526,146.071 401.526,73.997 391.774,73.997 391.774,129.538 
		391.477,129.637 356.776,73.997 347.024,73.997 347.024,146.071 356.776,146.071 	"/>
	<path d="M328.492,146.071h9.95l-27.424-72.074h-8.366l-27.869,72.074h9.95l6.831-18.563h30.196L328.492,146.071z M294.584,119.341
		l12.078-32.82h0.297l11.88,32.82H294.584z"/>
	<polygon points="272.042,81.67 272.042,73.997 224.768,73.997 224.768,146.071 272.586,146.071 272.586,138.399 234.52,138.399 
		234.52,112.658 267.537,112.658 267.537,104.985 234.52,104.985 234.52,81.67 	"/>
	<polygon points="198.464,146.071 208.216,146.071 208.216,73.997 195.741,73.997 172.772,132.558 172.475,132.558 149.507,73.997 
		137.032,73.997 137.032,146.071 146.784,146.071 146.784,117.559 145.844,88.402 146.091,88.353 169.357,146.071 175.842,146.071 
		199.206,88.204 199.454,88.254 198.464,117.559 	"/>
	<path d="M81.256,147.111c4.455,0,8.25-0.631,11.386-1.893c3.134-1.263,5.659-2.84,7.573-4.733l-3.811-6.343
		c-1.816,1.65-3.969,2.945-6.46,3.885c-2.492,0.941-5.388,1.411-8.688,1.411c-4.521,0-8.036-1.653-10.544-4.961
		c-2.508-3.307-3.811-7.528-3.91-12.662l0.148-0.247h34.75v-6.089c0-7.259-1.848-13.068-5.544-17.424
		c-3.696-4.356-9.158-6.534-16.385-6.534c-6.204,0-11.575,2.533-16.113,7.598c-4.537,5.066-6.806,11.41-6.806,19.034v2.178
		c0,7.92,2.203,14.364,6.608,19.33C67.866,144.628,73.798,147.111,81.256,147.111z M71.405,103.313
		c2.31-2.746,5.099-4.12,8.366-4.12c4.026,0,7.062,1.284,9.109,3.848c2.045,2.566,3.069,5.757,3.069,9.572v1.282H67.247
		l-0.099-0.246C67.676,109.504,69.095,106.059,71.405,103.313z"/>
	<path d="M11.886,138.993c1.715,2.673,3.877,4.695,6.485,6.064c2.606,1.369,5.675,2.054,9.207,2.054
		c6.501,0,11.608-2.368,15.321-7.103c3.712-4.736,5.569-10.965,5.569-18.687v-1.04c0-8.613-1.849-15.56-5.545-20.84
		c-3.696-5.28-8.844-7.92-15.444-7.92c-3.334,0-6.246,0.627-8.737,1.881c-2.492,1.254-4.579,3.069-6.262,5.445V68.849H2.728v77.222
		h7.97L11.886,138.993z M12.48,107.559c1.22-2.475,2.863-4.446,4.925-5.915c2.062-1.468,4.596-2.203,7.599-2.203
		c4.62,0,8.06,1.939,10.321,5.816c2.26,3.879,3.391,8.886,3.391,15.024v1.04c0,5.379-1.123,9.702-3.366,12.969
		c-2.245,3.267-5.66,4.901-10.247,4.901c-3.102,0-5.668-0.743-7.698-2.228c-2.029-1.485-3.671-3.547-4.925-6.188V107.559z"/>
	<path d="M135.546,52.025c1.406,1.689,3.099,3.031,5.081,4.027c1.981,0.995,4.205,1.493,6.67,1.493c2.227,0,4.259-0.165,6.094-0.494
		c1.836-0.328,3.516-0.771,5.04-1.328c1.525-0.557,2.918-1.205,4.178-1.945c1.26-0.739,2.424-1.515,3.492-2.328
		c1.068-0.812,2.063-1.634,2.986-2.465c0.275-0.248,0.541-0.485,0.81-0.725c0.054,0.316,0.117,0.618,0.2,0.889
		c0.237,0.776,0.561,1.402,0.972,1.876c0.411,0.475,0.881,0.813,1.411,1.014c0.529,0.201,1.096,0.301,1.698,0.301
		c0.73,0,1.484-0.151,2.26-0.452c0.776-0.301,1.543-0.716,2.301-1.246c0.757-0.53,1.502-1.155,2.232-1.876
		c0.731-0.722,1.425-1.511,2.082-2.37c0.182,0.84,0.397,1.603,0.644,2.287c0.246,0.685,0.548,1.274,0.904,1.767
		s0.78,0.877,1.273,1.151c0.494,0.273,1.087,0.41,1.781,0.41c0.694,0,1.442-0.095,2.246-0.287c0.803-0.192,1.616-0.447,2.438-0.767
		c0.822-0.319,1.639-0.689,2.451-1.11c0.615-0.317,1.179-0.656,1.741-0.994c0.088,0.613,0.236,1.174,0.461,1.666
		c0.247,0.538,0.598,0.968,1.055,1.287c0.456,0.32,1.058,0.479,1.807,0.479c0.329,0,0.63-0.059,0.904-0.178
		c0.274-0.118,0.53-0.324,0.767-0.616s0.47-0.671,0.699-1.137c0.228-0.465,0.47-1.054,0.726-1.767l4.903-13.668h0.438
		c0.146,1.15,0.338,2.287,0.575,3.41c0.237,1.123,0.603,2.137,1.096,3.041s1.159,1.634,2,2.191c0.839,0.557,1.944,0.836,3.314,0.836
		c0.248,0,0.493-0.032,0.739-0.056c-0.125,0.295-0.208,0.601-0.208,0.932c0,0.493,0.054,0.872,0.164,1.137
		c0.11,0.265,0.256,0.456,0.438,0.575c0.183,0.119,0.402,0.188,0.658,0.205c0.255,0.019,0.529,0.028,0.821,0.028
		c0.238,0,0.48-0.009,0.726-0.028c0.247-0.017,0.498-0.054,0.754-0.109c0.091,0.986,0.356,1.826,0.794,2.52
		c0.438,0.694,1.009,1.256,1.712,1.685s1.52,0.744,2.451,0.945c0.932,0.2,1.936,0.301,3.014,0.301c1.497,0,3.081-0.169,4.752-0.507
		s3.323-0.799,4.958-1.383c1.634-0.584,3.195-1.26,4.684-2.027c0.261-0.135,0.486-0.28,0.736-0.418
		c0.056,0.092,0.106,0.19,0.164,0.281c0.731,1.132,1.667,2.05,2.808,2.753s2.515,1.054,4.122,1.054c1.114,0,2.164-0.191,3.15-0.575
		c0.987-0.383,1.895-0.904,2.726-1.561c0.831-0.658,1.57-1.434,2.219-2.329c0.648-0.894,1.195-1.853,1.643-2.876
		c0.447-1.022,0.79-2.081,1.027-3.177s0.356-2.182,0.356-3.26c0-1.077-0.132-2.205-0.397-3.383
		c-0.265-1.177-0.662-2.296-1.191-3.355l0.219-0.301c0.657,0.438,1.442,0.982,2.356,1.63c0.912,0.648,1.839,1.337,2.78,2.068
		c0.94,0.73,1.83,1.479,2.67,2.246c0.84,0.767,1.507,1.479,2,2.136l0.52-3.862c-0.986-1.242-2.05-2.447-3.191-3.616
		c-1.141-1.168-2.374-2.205-3.697-3.109c-1.325-0.904-2.744-1.625-4.26-2.164c-1.516-0.538-3.141-0.808-4.876-0.808
		c-2.027,0-3.853,0.37-5.478,1.11c-1.625,0.739-2.999,1.753-4.122,3.04c-1.123,1.288-1.986,2.804-2.589,4.547
		c-0.602,1.744-0.904,3.621-0.904,5.629c0,0.856,0.076,1.703,0.192,2.546c-0.076,0.036-0.154,0.076-0.229,0.111
		c-0.822,0.384-1.612,0.753-2.37,1.11c-0.758,0.356-1.465,0.753-2.123,1.191c0-1.168-0.041-2.182-0.123-3.04
		c-0.082-0.859-0.192-1.617-0.329-2.274c-0.137-0.657-0.278-1.237-0.424-1.739c-0.147-0.502-0.288-0.977-0.425-1.425
		c-0.137-0.447-0.246-0.904-0.328-1.369c-0.083-0.466-0.124-0.982-0.124-1.548c0.055-0.201,0.269-0.507,0.644-0.917
		c0.374-0.411,0.771-0.863,1.191-1.356c0.42-0.493,0.804-1.004,1.151-1.534c0.347-0.53,0.52-1.014,0.52-1.452
		c0-0.219-0.018-0.479-0.054-0.781c-0.037-0.301-0.165-0.589-0.384-0.863c-0.219-0.273-0.566-0.506-1.041-0.698
		c-0.475-0.192-1.15-0.288-2.027-0.288c-0.53,0-1.009,0.078-1.438,0.233c-0.429,0.156-0.822,0.356-1.178,0.603
		c-0.356,0.246-0.68,0.525-0.972,0.835c-0.292,0.311-0.557,0.63-0.794,0.959c-1.169,1.461-2.119,2.68-2.849,3.657
		c-0.731,0.977-1.352,1.803-1.863,2.479c-0.511,0.675-0.954,1.26-1.328,1.753c-0.1,0.131-0.226,0.259-0.331,0.389l0.142-2.224
		c-0.821,0.675-1.662,1.278-2.52,1.807c-0.73,0.457-1.534,0.868-2.41,1.233c-0.877,0.365-1.726,0.548-2.548,0.548
		c-0.292,0-0.57-0.055-0.835-0.165c-0.265-0.109-0.502-0.296-0.712-0.561s-0.379-0.616-0.507-1.055
		c-0.128-0.438-0.192-0.986-0.192-1.643c0-0.384,0.046-0.863,0.137-1.438c0.091-0.575,0.192-1.169,0.302-1.781
		c0.109-0.611,0.209-1.195,0.301-1.753c0.091-0.557,0.137-0.99,0.137-1.301c0-0.401-0.073-0.762-0.219-1.082
		c-0.147-0.319-0.343-0.589-0.589-0.808c-0.247-0.219-0.534-0.388-0.863-0.507c-0.329-0.118-0.667-0.178-1.013-0.178
		c-1.005,0-1.891,0.27-2.657,0.808c-0.767,0.539-1.452,1.201-2.055,1.986c-0.602,0.786-1.132,1.63-1.589,2.534
		c-0.456,0.904-0.867,1.721-1.232,2.452h-0.301c-0.037-0.932-0.055-1.877-0.055-2.835c0-0.959,0-1.776,0-2.452
		c0-0.566-0.014-1.013-0.041-1.342c-0.028-0.329-0.106-0.58-0.233-0.753c-0.128-0.174-0.325-0.283-0.589-0.329
		c-0.265-0.046-0.635-0.069-1.109-0.069c-0.421,0-0.772,0.023-1.055,0.069c-0.283,0.046-0.52,0.137-0.712,0.274
		c-0.192,0.137-0.361,0.324-0.507,0.561c-0.146,0.238-0.292,0.558-0.438,0.959c-0.238,0.603-0.475,1.37-0.712,2.301
		c-0.238,0.931-0.475,1.954-0.713,3.068c-0.237,1.114-0.461,2.287-0.671,3.52c-0.21,1.232-0.393,2.442-0.548,3.629
		c-0.134,1.025-0.239,1.996-0.325,2.932c-0.294,0.204-0.57,0.421-0.876,0.615c-0.676,0.429-1.338,0.813-1.986,1.151
		c-0.649,0.338-1.26,0.607-1.835,0.808c-0.576,0.201-1.064,0.301-1.466,0.301c-0.365,0-0.644-0.086-0.835-0.26
		c-0.192-0.174-0.334-0.42-0.425-0.74c-0.092-0.319-0.146-0.694-0.164-1.123c-0.019-0.429-0.028-0.899-0.028-1.411
		c0-0.273,0.055-0.762,0.165-1.465c0.109-0.703,0.25-1.52,0.424-2.452c0.174-0.931,0.361-1.935,0.562-3.013
		c0.2-1.077,0.388-2.122,0.561-3.136c0.174-1.013,0.315-1.945,0.425-2.794c0.109-0.849,0.164-1.52,0.164-2.013
		c0-0.511-0.274-0.931-0.822-1.26c-0.547-0.329-1.287-0.493-2.218-0.493c-0.822,0-1.557,0.15-2.205,0.452
		c-0.649,0.301-1.018,0.671-1.11,1.109l-2.711,13.915c-0.147,0.731-0.366,1.383-0.658,1.959c-0.292,0.575-0.626,1.059-1,1.451
		c-0.374,0.393-0.771,0.694-1.191,0.904c-0.42,0.21-0.831,0.315-1.233,0.315c-0.274,0-0.511-0.073-0.712-0.219
		s-0.365-0.338-0.493-0.575s-0.224-0.507-0.288-0.808c-0.064-0.302-0.095-0.617-0.095-0.945c0-0.012,0.019-0.149,0.054-0.387
		c0.115-0.054,0.23-0.111,0.346-0.161v-2.065c0.021-0.131,0.042-0.26,0.065-0.4c0.146-0.895,0.31-1.913,0.493-3.054
		c0.183-1.141,0.374-2.315,0.575-3.52c0.201-1.206,0.398-2.401,0.589-3.589c0.192-1.186,0.37-2.264,0.535-3.232
		c0-0.31-0.211-0.57-0.63-0.78c-0.421-0.21-1.115-0.333-2.082-0.37c-0.585,0.018-1.11,0.174-1.575,0.465
		c-0.466,0.293-0.873,0.667-1.219,1.123c-0.347,0.457-0.649,0.969-0.904,1.534c-0.256,0.567-0.47,1.123-0.644,1.671
		c-0.174,0.548-0.311,1.055-0.411,1.521c-0.1,0.465-0.169,0.835-0.205,1.109c-0.477,2.702-0.88,5.107-1.211,7.228
		c-0.799,0.523-1.592,1.056-2.374,1.606c-1.415,0.995-2.831,1.986-4.246,2.972c-1.415,0.986-2.881,1.872-4.396,2.657
		c-1.516,0.785-3.109,1.42-4.78,1.903c-1.671,0.484-3.474,0.726-5.41,0.726c-1.552,0-2.949-0.228-4.191-0.685
		c-1.242-0.456-2.292-1.15-3.15-2.081c-0.858-0.932-1.52-2.096-1.986-3.493c-0.465-1.397-0.698-3.035-0.698-4.917
		c0-1.314,0.132-2.752,0.397-4.314c0.265-1.561,0.644-3.172,1.137-4.834c0.493-1.662,1.091-3.328,1.794-4.999
		c0.703-1.671,1.493-3.278,2.369-4.821c0.877-1.543,1.831-2.99,2.863-4.342c1.031-1.351,2.123-2.52,3.273-3.506
		c1.151-0.986,2.351-1.767,3.602-2.342c1.251-0.575,2.534-0.863,3.849-0.863c1.113,0,2.058,0.169,2.835,0.507
		c0.776,0.338,1.41,0.785,1.903,1.342s0.849,1.205,1.069,1.945c0.219,0.74,0.328,1.52,0.328,2.342c0,1.552-0.306,2.972-0.917,4.259
		c-0.612,1.288-1.397,2.397-2.356,3.328c-0.959,0.932-2.036,1.653-3.232,2.164c-1.196,0.512-2.379,0.767-3.547,0.767
		c-0.439,0-0.799-0.031-1.082-0.095c-0.284-0.064-0.526-0.133-0.726-0.206c-0.201-0.073-0.384-0.141-0.548-0.205
		c-0.164-0.064-0.356-0.096-0.575-0.096c-0.366,0-0.653,0.091-0.863,0.274c-0.21,0.182-0.37,0.42-0.479,0.712
		c-0.11,0.292-0.183,0.616-0.22,0.972c-0.036,0.356-0.054,0.699-0.054,1.027c0,0.22,0.004,0.43,0.013,0.63
		c0.009,0.202,0.014,0.375,0.014,0.521c0,0.84,0.411,1.484,1.233,1.931c0.821,0.448,2.063,0.671,3.725,0.671
		c1.26,0,2.52-0.237,3.78-0.712c1.26-0.475,2.474-1.118,3.643-1.931c1.168-0.813,2.26-1.776,3.273-2.89
		c1.014-1.114,1.895-2.305,2.644-3.575c0.748-1.269,1.337-2.592,1.766-3.971c0.429-1.379,0.644-2.744,0.644-4.095
		c0-2.009-0.342-3.753-1.027-5.232s-1.566-2.703-2.643-3.671c-1.078-0.967-2.292-1.684-3.644-2.15
		c-1.351-0.466-2.684-0.698-3.999-0.698c-2.027,0-3.981,0.328-5.861,0.986c-1.882,0.657-3.671,1.566-5.369,2.725
		c-1.699,1.16-3.297,2.52-4.794,4.081c-1.497,1.562-2.872,3.256-4.122,5.082c-1.251,1.826-2.37,3.734-3.356,5.724
		c-0.986,1.991-1.821,3.986-2.506,5.986c-0.685,1.999-1.21,3.962-1.575,5.889c-0.366,1.927-0.548,3.73-0.548,5.41
		c0,2.465,0.379,4.816,1.137,7.053C133.057,48.373,134.139,50.336,135.546,52.025z M247.098,37.96
		c0.292-1.206,0.694-2.306,1.205-3.301c0.511-0.995,1.105-1.812,1.781-2.452c0.675-0.639,1.387-0.958,2.136-0.958
		c0.566,0,1.05,0.155,1.452,0.465c0.402,0.311,0.73,0.731,0.986,1.26c0.256,0.53,0.448,1.155,0.576,1.877
		c0.127,0.721,0.191,1.502,0.191,2.342c0,1.059-0.132,2.168-0.397,3.328c-0.265,1.159-0.616,2.218-1.055,3.177
		c-0.438,0.959-0.949,1.753-1.533,2.383c-0.585,0.63-1.188,0.945-1.808,0.945c-0.712,0-1.324-0.151-1.836-0.452
		c-0.511-0.301-0.922-0.703-1.232-1.205c-0.311-0.502-0.539-1.091-0.685-1.767c-0.146-0.675-0.219-1.397-0.219-2.164
		C246.66,40.325,246.806,39.165,247.098,37.96z M228.982,38.261c0.091,0.292,0.196,0.644,0.315,1.054
		c0.119,0.411,0.228,0.85,0.329,1.315c0.1,0.466,0.182,0.955,0.246,1.466c0.064,0.511,0.096,1.013,0.096,1.506
		c0,0.566-0.055,1.11-0.164,1.63c-0.11,0.52-0.301,0.977-0.575,1.37c-0.274,0.392-0.644,0.707-1.11,0.945
		c-0.465,0.237-1.054,0.356-1.767,0.356c-0.584,0-1.105-0.137-1.561-0.411c-0.457-0.274-0.858-0.575-1.205-0.904
		s-0.653-0.63-0.918-0.904c-0.265-0.274-0.506-0.411-0.726-0.411L228.982,38.261z"/>
</g>
<path fill="#83CD29" d="M408.456,241.71l-4.528-15.439h-25.04l-4.473,15.439h-18.549l25.641-79.43h19.803l25.694,79.43
	L408.456,241.71L408.456,241.71z M391.544,183.665h-0.327l-8.237,28.422h16.857L391.544,183.665z M331.788,214.487H318.04v27.223
	h-18.493v-79.43h32.241c9.419,0,16.893,2.409,22.421,7.228c5.528,4.819,8.292,11.12,8.292,18.903c0,7.82-2.764,14.121-8.292,18.903
	S341.207,214.487,331.788,214.487z M340.926,179.846c-2.092-2.255-5.138-3.382-9.138-3.382H318.04v23.84h13.748
	c4,0,7.046-1.1,9.138-3.301c2.09-2.2,3.136-5.027,3.136-8.483C344.062,184.993,343.016,182.101,340.926,179.846z M268.922,162.28
	h18.384v79.43h-18.384V162.28z M239.033,235.709c-0.455-2.873-0.682-5.528-0.682-7.965v-4.801c0-3.782-1.001-6.673-3-8.674
	c-2.001-2-4.929-3-8.783-3h-12.711v30.441h-18.494v-79.43h30.55c9.201,0,16.493,2.127,21.876,6.382
	c5.382,4.256,8.074,10.075,8.074,17.458c0,4.11-1.083,7.637-3.246,10.583c-2.164,2.946-5.356,5.346-9.574,7.201
	c4.873,1.383,8.374,3.682,10.501,6.901c2.128,3.219,3.192,7.228,3.192,12.029v5.019c0,2.073,0.308,4.438,0.927,7.092
	c0.618,2.655,1.691,4.547,3.219,5.674v1.091h-18.985C240.442,240.583,239.487,238.582,239.033,235.709z M234.451,179.437
	c-2.019-1.982-4.865-2.973-8.538-2.973h-12.056v20.621h12.165c3.71,0,6.546-0.846,8.51-2.537c1.964-1.691,2.946-4.119,2.946-7.283
	C237.478,184.029,236.469,181.419,234.451,179.437z M152.518,242.855c-10.075,0-18.24-3.172-24.495-9.519
	c-6.255-6.346-9.383-14.411-9.383-24.195v-14.293c0-9.746,3.118-17.802,9.356-24.167c6.237-6.364,14.375-9.547,24.413-9.547
	c9.964,0,18.075,3.183,24.331,9.547c6.255,6.365,9.383,14.421,9.383,24.167v14.293c0,9.784-3.101,17.849-9.302,24.195
	C170.62,239.683,162.519,242.855,152.518,242.855z M167.738,194.739c0-5.674-1.336-10.328-4.009-13.966
	c-2.674-3.636-6.447-5.455-11.32-5.455c-4.983,0-8.793,1.81-11.429,5.428c-2.638,3.619-3.955,8.284-3.955,13.993v14.402
	c0,5.747,1.336,10.439,4.009,14.075c2.673,3.637,6.501,5.455,11.484,5.455c4.836,0,8.583-1.818,11.238-5.455
	c2.654-3.636,3.982-8.328,3.982-14.075L167.738,194.739L167.738,194.739z M62.757,162.28H81.25v65.246h34.205v14.184H62.757V162.28z
	 M18.493,195.557h31.805v14.184H18.493v31.969H0v-79.43h55.862v14.184H18.493V195.557z"/>
<g>
	<polygon fill="#FFFFFF" points="391.774,70.797 391.774,126.338 391.477,126.437 356.776,70.797 347.024,70.797 347.024,142.871 
		356.776,142.871 356.776,87.232 357.073,87.133 391.774,142.871 401.526,142.871 401.526,70.797 	"/>
	<path fill="#FFFFFF" d="M302.652,70.797l-27.869,72.074h9.95l6.831-18.563h30.196l6.732,18.563h9.95l-27.424-72.074
		C311.018,70.797,302.652,70.797,302.652,70.797z M294.584,116.141l12.078-32.82h0.297l11.88,32.82H294.584z"/>
	<polygon fill="#FFFFFF" points="234.52,109.458 267.537,109.458 267.537,101.785 234.52,101.785 234.52,78.47 272.042,78.47 
		272.042,70.797 224.768,70.797 224.768,142.871 272.586,142.871 272.586,135.199 234.52,135.199 	"/>
	<polygon fill="#FFFFFF" points="172.772,129.358 172.475,129.358 149.507,70.797 137.032,70.797 137.032,142.871 146.784,142.871 
		146.784,114.359 145.844,85.202 146.091,85.153 169.357,142.871 175.842,142.871 199.206,85.004 199.454,85.054 198.464,114.359 
		198.464,142.871 208.216,142.871 208.216,70.797 195.741,70.797 	"/>
	<path fill="#FFFFFF" d="M79.771,88.321c-6.204,0-11.575,2.533-16.113,7.598c-4.537,5.066-6.806,11.41-6.806,19.034v2.178
		c0,7.92,2.203,14.364,6.608,19.33c4.406,4.967,10.338,7.45,17.796,7.45c4.455,0,8.25-0.631,11.386-1.893
		c3.134-1.263,5.659-2.84,7.573-4.733l-3.811-6.343c-1.816,1.65-3.969,2.945-6.46,3.885c-2.492,0.941-5.388,1.411-8.688,1.411
		c-4.521,0-8.036-1.653-10.544-4.961c-2.508-3.307-3.811-7.528-3.91-12.662l0.148-0.247h34.75v-6.089
		c0-7.259-1.848-13.068-5.544-17.424C92.46,90.499,86.998,88.321,79.771,88.321z M91.949,110.695H67.247l-0.099-0.246
		c0.528-4.145,1.947-7.59,4.257-10.336c2.31-2.746,5.099-4.12,8.366-4.12c4.026,0,7.062,1.284,9.109,3.848
		c2.045,2.566,3.069,5.757,3.069,9.572V110.695z"/>
	<path fill="#FFFFFF" d="M27.479,88.321c-3.334,0-6.246,0.627-8.737,1.881c-2.492,1.254-4.579,3.069-6.262,5.445V65.649H2.728
		v77.222h7.97l1.188-7.078c1.715,2.673,3.877,4.695,6.485,6.064c2.606,1.369,5.675,2.054,9.207,2.054
		c6.501,0,11.608-2.368,15.321-7.103c3.712-4.736,5.569-10.965,5.569-18.687v-1.04c0-8.613-1.849-15.56-5.545-20.84
		C39.227,90.961,34.079,88.321,27.479,88.321z M38.716,118.121c0,5.379-1.123,9.702-3.366,12.969
		c-2.245,3.267-5.66,4.901-10.247,4.901c-3.102,0-5.668-0.743-7.698-2.228c-2.029-1.485-3.671-3.547-4.925-6.188v-23.216
		c1.22-2.475,2.863-4.446,4.925-5.915c2.062-1.468,4.596-2.203,7.599-2.203c4.62,0,8.06,1.939,10.321,5.816
		c2.26,3.879,3.391,8.886,3.391,15.024C38.716,117.081,38.716,118.121,38.716,118.121z"/>
	<path fill="#FFFFFF" d="M232.091,48.825c1.671-0.338,3.323-0.799,4.958-1.383c1.634-0.584,3.195-1.26,4.684-2.027
		c0.261-0.135,0.486-0.28,0.736-0.418c0.056,0.092,0.106,0.19,0.164,0.281c0.731,1.132,1.667,2.05,2.808,2.753
		c1.141,0.703,2.515,1.054,4.122,1.054c1.114,0,2.164-0.191,3.15-0.575c0.987-0.383,1.895-0.904,2.726-1.561
		c0.831-0.658,1.57-1.434,2.219-2.329c0.648-0.894,1.195-1.853,1.643-2.876c0.447-1.022,0.79-2.081,1.027-3.177
		s0.356-2.182,0.356-3.26c0-1.077-0.132-2.205-0.397-3.383c-0.265-1.177-0.662-2.296-1.191-3.355l0.219-0.301
		c0.657,0.438,1.442,0.982,2.356,1.63c0.912,0.648,1.839,1.337,2.78,2.068c0.94,0.73,1.83,1.479,2.67,2.246
		c0.84,0.767,1.507,1.479,2,2.136l0.52-3.862c-0.986-1.242-2.05-2.447-3.191-3.616c-1.141-1.168-2.374-2.205-3.697-3.109
		c-1.325-0.904-2.744-1.625-4.26-2.164c-1.516-0.538-3.141-0.808-4.876-0.808c-2.027,0-3.853,0.37-5.478,1.11
		c-1.625,0.739-2.999,1.753-4.122,3.04c-1.123,1.288-1.986,2.804-2.589,4.547c-0.602,1.744-0.904,3.621-0.904,5.629
		c0,0.856,0.076,1.703,0.192,2.546c-0.076,0.036-0.154,0.076-0.229,0.111c-0.822,0.384-1.612,0.753-2.37,1.11
		c-0.758,0.356-1.465,0.753-2.123,1.191c0-1.168-0.041-2.182-0.123-3.04c-0.082-0.859-0.192-1.617-0.329-2.274
		c-0.137-0.657-0.278-1.237-0.424-1.739c-0.147-0.502-0.288-0.977-0.425-1.425c-0.137-0.447-0.246-0.904-0.328-1.369
		c-0.083-0.466-0.124-0.982-0.124-1.548c0.055-0.201,0.269-0.507,0.644-0.917c0.374-0.411,0.771-0.863,1.191-1.356
		c0.42-0.493,0.804-1.004,1.151-1.534s0.52-1.014,0.52-1.452c0-0.219-0.018-0.479-0.054-0.781c-0.037-0.301-0.165-0.589-0.384-0.863
		c-0.219-0.273-0.566-0.506-1.041-0.698s-1.15-0.288-2.027-0.288c-0.53,0-1.009,0.078-1.438,0.233
		c-0.429,0.156-0.822,0.356-1.178,0.603c-0.356,0.246-0.68,0.525-0.972,0.835c-0.292,0.311-0.557,0.63-0.794,0.959
		c-1.169,1.461-2.119,2.68-2.849,3.657c-0.731,0.977-1.352,1.803-1.863,2.479c-0.511,0.675-0.954,1.26-1.328,1.753
		c-0.1,0.131-0.226,0.259-0.331,0.389l0.142-2.224c-0.821,0.675-1.662,1.278-2.52,1.807c-0.73,0.457-1.534,0.868-2.41,1.233
		c-0.877,0.365-1.726,0.548-2.548,0.548c-0.292,0-0.57-0.055-0.835-0.165c-0.265-0.109-0.502-0.296-0.712-0.561
		s-0.379-0.616-0.507-1.055c-0.128-0.438-0.192-0.986-0.192-1.643c0-0.384,0.046-0.863,0.137-1.438
		c0.091-0.575,0.192-1.169,0.302-1.781c0.109-0.611,0.209-1.195,0.301-1.753c0.091-0.557,0.137-0.99,0.137-1.301
		c0-0.401-0.073-0.762-0.219-1.082c-0.147-0.319-0.343-0.589-0.589-0.808c-0.247-0.219-0.534-0.388-0.863-0.507
		c-0.329-0.118-0.667-0.178-1.013-0.178c-1.005,0-1.891,0.27-2.657,0.808c-0.767,0.539-1.452,1.201-2.055,1.986
		c-0.602,0.786-1.132,1.63-1.589,2.534c-0.456,0.904-0.867,1.721-1.232,2.452h-0.301c-0.037-0.932-0.055-1.877-0.055-2.835
		c0-0.959,0-1.776,0-2.452c0-0.566-0.014-1.013-0.041-1.342c-0.028-0.329-0.106-0.58-0.233-0.753
		c-0.128-0.174-0.325-0.283-0.589-0.329c-0.265-0.046-0.635-0.069-1.109-0.069c-0.421,0-0.772,0.023-1.055,0.069
		c-0.283,0.046-0.52,0.137-0.712,0.274c-0.192,0.137-0.361,0.324-0.507,0.561c-0.146,0.238-0.292,0.558-0.438,0.959
		c-0.238,0.603-0.475,1.37-0.712,2.301c-0.238,0.931-0.475,1.954-0.713,3.068c-0.237,1.114-0.461,2.287-0.671,3.52
		c-0.21,1.232-0.393,2.442-0.548,3.629c-0.134,1.025-0.239,1.996-0.325,2.932c-0.294,0.204-0.57,0.421-0.876,0.615
		c-0.676,0.429-1.338,0.813-1.986,1.151c-0.649,0.338-1.26,0.607-1.835,0.808c-0.576,0.201-1.064,0.301-1.466,0.301
		c-0.365,0-0.644-0.086-0.835-0.26c-0.192-0.174-0.334-0.42-0.425-0.74c-0.092-0.319-0.146-0.694-0.164-1.123
		c-0.019-0.429-0.028-0.899-0.028-1.411c0-0.273,0.055-0.762,0.165-1.465c0.109-0.703,0.25-1.52,0.424-2.452
		c0.174-0.931,0.361-1.935,0.562-3.013c0.2-1.077,0.388-2.122,0.561-3.136c0.174-1.013,0.315-1.945,0.425-2.794
		c0.109-0.849,0.164-1.52,0.164-2.013c0-0.511-0.274-0.931-0.822-1.26c-0.547-0.329-1.287-0.493-2.218-0.493
		c-0.822,0-1.557,0.15-2.205,0.452c-0.649,0.301-1.018,0.671-1.11,1.109l-2.711,13.915c-0.147,0.731-0.366,1.383-0.658,1.959
		c-0.292,0.575-0.626,1.059-1,1.451c-0.374,0.393-0.771,0.694-1.191,0.904s-0.831,0.315-1.233,0.315
		c-0.274,0-0.511-0.073-0.712-0.219s-0.365-0.338-0.493-0.575s-0.224-0.507-0.288-0.808c-0.064-0.302-0.095-0.617-0.095-0.945
		c0-0.012,0.019-0.149,0.054-0.387c0.115-0.054,0.23-0.111,0.346-0.161v-2.065c0.021-0.131,0.042-0.26,0.065-0.4
		c0.146-0.895,0.31-1.913,0.493-3.054c0.183-1.141,0.374-2.315,0.575-3.52c0.201-1.206,0.398-2.401,0.589-3.589
		c0.192-1.186,0.37-2.264,0.535-3.232c0-0.31-0.211-0.57-0.63-0.78c-0.421-0.21-1.115-0.333-2.082-0.37
		c-0.585,0.018-1.11,0.174-1.575,0.465c-0.466,0.293-0.873,0.667-1.219,1.123c-0.347,0.457-0.649,0.969-0.904,1.534
		c-0.256,0.567-0.47,1.123-0.644,1.671s-0.311,1.055-0.411,1.521c-0.1,0.465-0.169,0.835-0.205,1.109
		c-0.477,2.702-0.88,5.107-1.211,7.228c-0.799,0.523-1.592,1.056-2.374,1.606c-1.415,0.995-2.831,1.986-4.246,2.972
		c-1.415,0.986-2.881,1.872-4.396,2.657c-1.516,0.785-3.109,1.42-4.78,1.903c-1.671,0.484-3.474,0.726-5.41,0.726
		c-1.552,0-2.949-0.228-4.191-0.685c-1.242-0.456-2.292-1.15-3.15-2.081c-0.858-0.932-1.52-2.096-1.986-3.493
		c-0.465-1.397-0.698-3.035-0.698-4.917c0-1.314,0.132-2.752,0.397-4.314c0.265-1.561,0.644-3.172,1.137-4.834
		s1.091-3.328,1.794-4.999c0.703-1.671,1.493-3.278,2.369-4.821c0.877-1.543,1.831-2.99,2.863-4.342
		c1.031-1.351,2.123-2.52,3.273-3.506c1.151-0.986,2.351-1.767,3.602-2.342s2.534-0.863,3.849-0.863
		c1.113,0,2.058,0.169,2.835,0.507c0.776,0.338,1.41,0.785,1.903,1.342s0.849,1.205,1.069,1.945c0.219,0.74,0.328,1.52,0.328,2.342
		c0,1.552-0.306,2.972-0.917,4.259c-0.612,1.288-1.397,2.397-2.356,3.328c-0.959,0.932-2.036,1.653-3.232,2.164
		c-1.196,0.512-2.379,0.767-3.547,0.767c-0.439,0-0.799-0.031-1.082-0.095c-0.284-0.064-0.526-0.133-0.726-0.206
		c-0.201-0.073-0.384-0.141-0.548-0.205s-0.356-0.096-0.575-0.096c-0.366,0-0.653,0.091-0.863,0.274
		c-0.21,0.182-0.37,0.42-0.479,0.712c-0.11,0.292-0.183,0.616-0.22,0.972c-0.036,0.356-0.054,0.699-0.054,1.027
		c0,0.22,0.004,0.43,0.013,0.63c0.009,0.202,0.014,0.375,0.014,0.521c0,0.84,0.411,1.484,1.233,1.931
		c0.821,0.448,2.063,0.671,3.725,0.671c1.26,0,2.52-0.237,3.78-0.712s2.474-1.118,3.643-1.931c1.168-0.813,2.26-1.776,3.273-2.89
		c1.014-1.114,1.895-2.305,2.644-3.575c0.748-1.269,1.337-2.592,1.766-3.971s0.644-2.744,0.644-4.095
		c0-2.009-0.342-3.753-1.027-5.232s-1.566-2.703-2.643-3.671c-1.078-0.967-2.292-1.684-3.644-2.15
		C161.942,0.232,160.609,0,159.294,0c-2.027,0-3.981,0.328-5.861,0.986c-1.882,0.657-3.671,1.566-5.369,2.725
		c-1.699,1.16-3.297,2.52-4.794,4.081c-1.497,1.562-2.872,3.256-4.122,5.082c-1.251,1.826-2.37,3.734-3.356,5.724
		c-0.986,1.991-1.821,3.986-2.506,5.986c-0.685,1.999-1.21,3.962-1.575,5.889c-0.366,1.927-0.548,3.73-0.548,5.41
		c0,2.465,0.379,4.816,1.137,7.053c0.757,2.237,1.839,4.2,3.246,5.889c1.406,1.689,3.099,3.031,5.081,4.027
		c1.981,0.995,4.205,1.493,6.67,1.493c2.227,0,4.259-0.165,6.094-0.494c1.836-0.328,3.516-0.771,5.04-1.328
		c1.525-0.557,2.918-1.205,4.178-1.945c1.26-0.739,2.424-1.515,3.492-2.328c1.068-0.812,2.063-1.634,2.986-2.465
		c0.275-0.248,0.541-0.485,0.81-0.725c0.054,0.316,0.117,0.618,0.2,0.889c0.237,0.776,0.561,1.402,0.972,1.876
		c0.411,0.475,0.881,0.813,1.411,1.014c0.529,0.201,1.096,0.301,1.698,0.301c0.73,0,1.484-0.151,2.26-0.452s1.543-0.716,2.301-1.246
		c0.757-0.53,1.502-1.155,2.232-1.876c0.731-0.722,1.425-1.511,2.082-2.37c0.182,0.84,0.397,1.603,0.644,2.287
		c0.246,0.685,0.548,1.274,0.904,1.767s0.78,0.877,1.273,1.151c0.494,0.273,1.087,0.41,1.781,0.41s1.442-0.095,2.246-0.287
		c0.803-0.192,1.616-0.447,2.438-0.767c0.822-0.319,1.639-0.689,2.451-1.11c0.615-0.317,1.179-0.656,1.741-0.994
		c0.088,0.613,0.236,1.174,0.461,1.666c0.247,0.538,0.598,0.968,1.055,1.287c0.456,0.32,1.058,0.479,1.807,0.479
		c0.329,0,0.63-0.059,0.904-0.178c0.274-0.118,0.53-0.324,0.767-0.616s0.47-0.671,0.699-1.137c0.228-0.465,0.47-1.054,0.726-1.767
		l4.903-13.668h0.438c0.146,1.15,0.338,2.287,0.575,3.41s0.603,2.137,1.096,3.041s1.159,1.634,2,2.191
		c0.839,0.557,1.944,0.836,3.314,0.836c0.248,0,0.493-0.032,0.739-0.056c-0.125,0.295-0.208,0.601-0.208,0.932
		c0,0.493,0.054,0.872,0.164,1.137s0.256,0.456,0.438,0.575c0.183,0.119,0.402,0.188,0.658,0.205
		c0.255,0.019,0.529,0.028,0.821,0.028c0.238,0,0.48-0.009,0.726-0.028c0.247-0.017,0.498-0.054,0.754-0.109
		c0.091,0.986,0.356,1.826,0.794,2.52s1.009,1.256,1.712,1.685s1.52,0.744,2.451,0.945c0.932,0.2,1.936,0.301,3.014,0.301
		C228.836,49.332,230.42,49.163,232.091,48.825z M247.098,34.76c0.292-1.206,0.694-2.306,1.205-3.301s1.105-1.812,1.781-2.452
		c0.675-0.639,1.387-0.958,2.136-0.958c0.566,0,1.05,0.155,1.452,0.465c0.402,0.311,0.73,0.731,0.986,1.26
		c0.256,0.53,0.448,1.155,0.576,1.877c0.127,0.721,0.191,1.502,0.191,2.342c0,1.059-0.132,2.168-0.397,3.328
		c-0.265,1.159-0.616,2.218-1.055,3.177c-0.438,0.959-0.949,1.753-1.533,2.383c-0.585,0.63-1.188,0.945-1.808,0.945
		c-0.712,0-1.324-0.151-1.836-0.452c-0.511-0.301-0.922-0.703-1.232-1.205c-0.311-0.502-0.539-1.091-0.685-1.767
		c-0.146-0.675-0.219-1.397-0.219-2.164C246.66,37.125,246.806,35.965,247.098,34.76z M224.791,44.292
		c-0.457-0.274-0.858-0.575-1.205-0.904s-0.653-0.63-0.918-0.904s-0.506-0.411-0.726-0.411l7.04-7.012
		c0.091,0.292,0.196,0.644,0.315,1.054c0.119,0.411,0.228,0.85,0.329,1.315c0.1,0.466,0.182,0.955,0.246,1.466
		s0.096,1.013,0.096,1.506c0,0.566-0.055,1.11-0.164,1.63c-0.11,0.52-0.301,0.977-0.575,1.37c-0.274,0.392-0.644,0.707-1.11,0.945
		c-0.465,0.237-1.054,0.356-1.767,0.356C225.768,44.703,225.247,44.566,224.791,44.292z"/>
</g>
</svg>
